<svg xmlns="http://www.w3.org/2000/svg" xmlns:xlink="http://www.w3.org/1999/xlink" width="500" zoomAndPan="magnify" viewBox="0 0 375 374.999991" height="500" preserveAspectRatio="xMidYMid meet" version="1.0"><defs><clipPath id="363c94c53b"><path d="M 7.460938 52.664062 L 367.460938 52.664062 L 367.460938 322.664062 L 7.460938 322.664062 Z M 7.460938 52.664062 " clip-rule="nonzero"/></clipPath></defs><g clip-path="url(#363c94c53b)"><path fill="#000000" d="M 339.214844 322.613281 L 35.355469 322.613281 C 33.050781 322.3125 31.371094 322.054688 30.320312 321.835938 C 20.585938 319.78125 12.507812 312.148438 9.261719 303.035156 C 8.289062 300.308594 7.929688 297.457031 7.460938 294.5625 L 7.460938 80.28125 C 7.964844 78.90625 7.929688 77.359375 8.210938 76.1875 C 8.597656 74.585938 8.992188 72.796875 9.628906 71.308594 C 13.730469 61.695312 20.894531 55.753906 31.113281 53.488281 C 32.054688 53.277344 32.996094 53.152344 33.941406 53.109375 C 35.210938 53.058594 36.449219 52.757812 37.734375 52.757812 C 136.726562 52.714844 236.773438 52.714844 337.882812 52.757812 C 338.65625 52.757812 339.421875 52.816406 340.179688 52.925781 C 340.9375 53.042969 341.699219 53.152344 342.464844 53.25 C 345.109375 53.601562 347.449219 54.230469 349.480469 55.140625 C 359.15625 59.460938 366.300781 68.566406 367.011719 79.410156 C 367.125 81.167969 367.304688 82.878906 367.292969 84.621094 C 366.886719 138.425781 367.109375 192.277344 367.113281 249.882812 C 367.113281 262.21875 367.4375 275.203125 367.265625 288.199219 C 367.214844 292.203125 367.121094 294.914062 366.988281 296.332031 C 366.1875 304.847656 362.175781 311.785156 354.953125 317.152344 C 351.511719 319.703125 347.664062 321.328125 343.414062 322.015625 C 342.019531 322.242188 340.617188 322.441406 339.214844 322.613281 Z M 182.027344 214.980469 C 186.597656 216.710938 191.964844 215.585938 195.511719 212.28125 C 226.871094 183.035156 258.050781 154.09375 289.054688 125.445312 C 306.960938 108.898438 324.714844 92.4375 342.3125 76.058594 C 342.582031 75.808594 342.59375 75.546875 342.339844 75.277344 C 341.9375 74.851562 341.34375 74.640625 340.550781 74.640625 C 237.867188 74.609375 136.425781 74.589844 36.234375 74.589844 C 34.269531 74.589844 33.144531 75.046875 31.820312 76.316406 C 31.628906 76.5 31.628906 76.683594 31.828125 76.859375 C 32.902344 77.804688 33.976562 78.765625 35.046875 79.742188 C 47 90.679688 60.402344 103.089844 75.257812 116.96875 C 107.152344 146.765625 138.105469 175.574219 168.117188 203.390625 C 170.78125 205.859375 173.519531 208.390625 176.324219 210.980469 C 178.574219 213.0625 180.476562 214.394531 182.027344 214.980469 Z M 344.902344 104.636719 C 344.902344 104.5625 344.867188 104.496094 344.792969 104.441406 C 344.71875 104.382812 344.644531 104.378906 344.570312 104.4375 C 342.097656 106.347656 340.113281 108.589844 337.761719 110.785156 C 312.292969 134.480469 286.160156 158.890625 259.371094 184.019531 C 259.117188 184.261719 258.847656 184.480469 258.5625 184.667969 C 258.152344 184.941406 258.136719 185.242188 258.515625 185.5625 C 259.40625 186.320312 260.195312 187.019531 260.882812 187.664062 C 275.363281 201.257812 290.953125 215.96875 307.648438 231.800781 C 310.878906 234.863281 313.714844 237.59375 316.15625 239.996094 C 318.808594 242.609375 321.632812 245.078125 324.28125 247.683594 C 326.351562 249.71875 328.378906 251.640625 330.363281 253.445312 C 333.664062 256.4375 336.683594 259.59375 340.003906 262.597656 C 341.574219 264.015625 343.097656 265.492188 344.570312 267.027344 C 344.628906 267.09375 344.703125 267.117188 344.789062 267.101562 C 344.925781 267.078125 344.992188 267.015625 344.992188 266.914062 C 344.996094 212.910156 344.992188 158.925781 344.980469 104.964844 C 344.980469 104.894531 344.964844 104.828125 344.933594 104.765625 C 344.914062 104.726562 344.902344 104.683594 344.902344 104.636719 Z M 30.214844 267.105469 C 32.445312 264.878906 34.859375 262.523438 37.457031 260.046875 C 60.757812 237.855469 83.765625 215.847656 106.488281 194.027344 C 109.074219 191.546875 111.792969 188.972656 114.644531 186.316406 C 115.203125 185.800781 115.199219 185.285156 114.632812 184.777344 C 113.535156 183.78125 112.496094 182.820312 111.511719 181.894531 C 84.058594 156.148438 58.210938 132.035156 33.964844 109.550781 C 32.511719 108.203125 31.125 106.90625 29.796875 105.65625 C 29.738281 105.601562 29.707031 105.601562 29.707031 105.65625 L 29.601562 266.851562 C 29.601562 267.429688 29.808594 267.515625 30.214844 267.105469 Z M 188.503906 238.316406 C 177.589844 238.8125 168.785156 234.851562 160.800781 227.324219 C 153.535156 220.476562 144.566406 212.0625 133.898438 202.085938 C 133.449219 201.667969 132.964844 201.261719 132.445312 200.867188 C 132.292969 200.753906 132.121094 200.703125 131.929688 200.710938 C 131.742188 200.722656 131.578125 200.792969 131.4375 200.921875 C 130.09375 202.140625 128.824219 203.511719 127.523438 204.75 C 99.695312 231.371094 72.132812 257.800781 44.835938 284.042969 C 41.386719 287.363281 38.3125 290.253906 35.613281 292.726562 C 34.089844 294.121094 32.65625 295.496094 31.304688 296.855469 C 30.945312 297.21875 30.9375 297.589844 31.289062 297.96875 C 33.449219 300.269531 35.351562 300.113281 38.835938 300.113281 C 138.621094 300.113281 238.410156 300.113281 338.195312 300.113281 C 340.65625 300.113281 342.019531 299.867188 343.332031 297.875 C 343.632812 297.410156 343.585938 296.988281 343.183594 296.613281 C 311.03125 266.148438 278.886719 235.652344 246.753906 205.121094 C 244.960938 203.417969 243.445312 201.882812 242.203125 200.515625 C 242.039062 200.335938 241.832031 200.242188 241.589844 200.230469 C 241.347656 200.222656 241.136719 200.300781 240.957031 200.464844 C 231.898438 208.851562 222.90625 217.359375 213.925781 225.816406 C 210.480469 229.0625 207.8125 231.292969 205.925781 232.515625 C 200.367188 236.105469 194.558594 238.042969 188.503906 238.316406 Z M 188.503906 238.316406 " fill-opacity="1" fill-rule="nonzero"/></g></svg>