<svg xmlns="http://www.w3.org/2000/svg" xmlns:xlink="http://www.w3.org/1999/xlink" width="576" zoomAndPan="magnify" viewBox="0 0 432 215.999996" height="288" preserveAspectRatio="xMidYMid meet" version="1.0"><defs><g/></defs><g fill="#000000" fill-opacity="1"><g transform="translate(35.191075, 135.749999)"><g><path d="M 18.125 -56.84375 L 18.125 -49.421875 L 12.3125 -49.421875 L 12.3125 -34.9375 L 18.125 -34.9375 L 18.125 -27.4375 L 12.3125 -27.4375 L 12.3125 0 L 2.59375 0 L 2.59375 -56.84375 Z M 18.125 -56.84375 "/></g></g></g><g fill="#000000" fill-opacity="1"><g transform="translate(55.069989, 135.749999)"><g><path d="M 11.765625 -9.59375 C 11.765625 -8 12.300781 -7.203125 13.375 -7.203125 C 13.925781 -7.203125 14.304688 -7.378906 14.515625 -7.734375 C 14.734375 -8.085938 14.84375 -8.707031 14.84375 -9.59375 L 14.84375 -47.1875 C 14.84375 -48.8125 14.304688 -49.625 13.234375 -49.625 C 12.253906 -49.625 11.765625 -48.8125 11.765625 -47.1875 Z M 2.09375 -45.84375 C 2.09375 -50.882812 2.75 -54.035156 4.0625 -55.296875 C 5.363281 -56.554688 8.441406 -57.1875 13.296875 -57.1875 C 18.203125 -57.1875 21.304688 -56.535156 22.609375 -55.234375 C 23.910156 -53.921875 24.5625 -50.789062 24.5625 -45.84375 L 24.5625 -10.984375 C 24.5625 -6.035156 23.890625 -2.890625 22.546875 -1.546875 C 21.191406 -0.285156 18.15625 0.34375 13.4375 0.34375 C 8.539062 0.34375 5.4375 -0.285156 4.125 -1.546875 C 2.769531 -2.890625 2.09375 -6.035156 2.09375 -10.984375 Z M 2.09375 -45.84375 "/></g></g></g><g fill="#000000" fill-opacity="1"><g transform="translate(81.73853, 135.749999)"><g><path d="M 11.96875 -56.84375 L 11.96875 -9.59375 C 11.96875 -7.957031 12.484375 -7.140625 13.515625 -7.140625 C 14.023438 -7.140625 14.394531 -7.3125 14.625 -7.65625 C 14.863281 -8.007812 14.984375 -8.65625 14.984375 -9.59375 L 14.984375 -56.84375 L 24.703125 -56.84375 L 24.703125 -10.921875 C 24.703125 -6.015625 24.03125 -2.890625 22.6875 -1.546875 C 21.332031 -0.285156 18.296875 0.34375 13.578125 0.34375 C 8.628906 0.34375 5.503906 -0.285156 4.203125 -1.546875 C 2.890625 -2.847656 2.234375 -5.972656 2.234375 -10.921875 L 2.234375 -56.84375 Z M 11.96875 -56.84375 "/></g></g></g><g fill="#000000" fill-opacity="1"><g transform="translate(108.617062, 135.749999)"><g><path d="M 11.125 -56.84375 L 16.453125 -28.484375 L 16.875 -28.484375 L 16.734375 -56.84375 L 25.125 -56.84375 L 25.125 0 L 16.515625 0 L 11.125 -29.125 L 10.703125 -29.125 L 10.921875 0 L 2.453125 0 L 2.453125 -56.84375 Z M 11.125 -56.84375 "/></g></g></g><g fill="#000000" fill-opacity="1"><g transform="translate(136.265548, 135.749999)"><g><path d="M 12.1875 -7.421875 L 13.015625 -7.421875 C 13.859375 -7.421875 14.429688 -7.582031 14.734375 -7.90625 C 15.035156 -8.238281 15.1875 -9.082031 15.1875 -10.4375 L 15.1875 -46.34375 C 15.1875 -47.738281 15.035156 -48.597656 14.734375 -48.921875 C 14.429688 -49.253906 13.8125 -49.421875 12.875 -49.421875 L 12.1875 -49.421875 Z M 14.34375 -56.84375 C 18.820312 -56.84375 21.691406 -56.164062 22.953125 -54.8125 C 24.265625 -53.5 24.921875 -50.328125 24.921875 -45.296875 L 24.921875 -11.625 C 24.921875 -6.488281 24.265625 -3.265625 22.953125 -1.953125 C 21.691406 -0.648438 18.847656 0 14.421875 0 L 2.453125 0 L 2.453125 -56.84375 Z M 14.34375 -56.84375 "/></g></g></g><g fill="#000000" fill-opacity="1"><g transform="translate(163.354068, 135.749999)"><g><path d="M 17.984375 -56.84375 L 17.984375 -49.421875 L 12.1875 -49.421875 L 12.1875 -34.9375 L 17.984375 -34.9375 L 17.984375 -27.4375 L 12.1875 -27.4375 L 12.1875 -7.484375 L 17.984375 -7.484375 L 17.984375 0 L 2.453125 0 L 2.453125 -56.84375 Z M 17.984375 -56.84375 "/></g></g></g><g fill="#000000" fill-opacity="1"><g transform="translate(183.512982, 135.749999)"><g><path d="M 12.1875 -32.0625 C 12.269531 -32.0625 12.40625 -32.046875 12.59375 -32.015625 C 12.78125 -31.992188 12.921875 -31.984375 13.015625 -31.984375 C 13.859375 -31.984375 14.441406 -32.179688 14.765625 -32.578125 C 15.097656 -32.984375 15.265625 -33.769531 15.265625 -34.9375 L 15.265625 -45.84375 C 15.265625 -47.53125 15.097656 -48.546875 14.765625 -48.890625 C 14.441406 -49.242188 13.789062 -49.421875 12.8125 -49.421875 L 12.1875 -49.421875 Z M 14.34375 -56.84375 C 18.59375 -56.84375 21.414062 -56.117188 22.8125 -54.671875 C 24.21875 -53.265625 24.921875 -50.140625 24.921875 -45.296875 L 24.921875 -37.875 C 24.921875 -34.789062 24.59375 -32.550781 23.9375 -31.15625 C 23.332031 -29.894531 22.191406 -28.863281 20.515625 -28.0625 C 22.097656 -27.457031 23.226562 -26.515625 23.90625 -25.234375 C 24.582031 -23.953125 24.921875 -21.976562 24.921875 -19.3125 L 24.921875 0 L 15.265625 0 L 15.265625 -21.0625 C 15.265625 -22 15.078125 -22.664062 14.703125 -23.0625 C 14.328125 -23.457031 13.742188 -23.65625 12.953125 -23.65625 C 12.859375 -23.65625 12.726562 -23.644531 12.5625 -23.625 C 12.394531 -23.601562 12.269531 -23.59375 12.1875 -23.59375 L 12.1875 0 L 2.453125 0 L 2.453125 -56.84375 Z M 14.34375 -56.84375 "/></g></g></g><g fill="#000000" fill-opacity="1"><g transform="translate(210.741482, 135.749999)"><g/></g></g><g fill="#000000" fill-opacity="1"><g transform="translate(221.59089, 135.749999)"><g><path d="M 24.5625 -37.453125 L 14.84375 -37.453125 L 14.84375 -47.1875 C 14.84375 -48.8125 14.304688 -49.625 13.234375 -49.625 C 12.253906 -49.625 11.765625 -48.8125 11.765625 -47.1875 L 11.765625 -9.59375 C 11.765625 -8 12.300781 -7.203125 13.375 -7.203125 C 13.925781 -7.203125 14.304688 -7.378906 14.515625 -7.734375 C 14.734375 -8.085938 14.84375 -8.707031 14.84375 -9.59375 L 14.84375 -24.078125 L 24.5625 -24.078125 L 24.5625 -10.984375 C 24.5625 -6.035156 23.890625 -2.890625 22.546875 -1.546875 C 21.191406 -0.285156 18.15625 0.34375 13.4375 0.34375 C 8.539062 0.34375 5.4375 -0.285156 4.125 -1.546875 C 2.769531 -2.890625 2.09375 -6.035156 2.09375 -10.984375 L 2.09375 -45.84375 C 2.09375 -50.882812 2.75 -54.035156 4.0625 -55.296875 C 5.363281 -56.554688 8.441406 -57.1875 13.296875 -57.1875 C 18.203125 -57.1875 21.304688 -56.535156 22.609375 -55.234375 C 23.910156 -53.921875 24.5625 -50.789062 24.5625 -45.84375 Z M 24.5625 -37.453125 "/></g></g></g><g fill="#000000" fill-opacity="1"><g transform="translate(247.90947, 135.749999)"><g><path d="M 11.765625 -9.59375 C 11.765625 -8 12.300781 -7.203125 13.375 -7.203125 C 13.925781 -7.203125 14.304688 -7.378906 14.515625 -7.734375 C 14.734375 -8.085938 14.84375 -8.707031 14.84375 -9.59375 L 14.84375 -47.1875 C 14.84375 -48.8125 14.304688 -49.625 13.234375 -49.625 C 12.253906 -49.625 11.765625 -48.8125 11.765625 -47.1875 Z M 2.09375 -45.84375 C 2.09375 -50.882812 2.75 -54.035156 4.0625 -55.296875 C 5.363281 -56.554688 8.441406 -57.1875 13.296875 -57.1875 C 18.203125 -57.1875 21.304688 -56.535156 22.609375 -55.234375 C 23.910156 -53.921875 24.5625 -50.789062 24.5625 -45.84375 L 24.5625 -10.984375 C 24.5625 -6.035156 23.890625 -2.890625 22.546875 -1.546875 C 21.191406 -0.285156 18.15625 0.34375 13.4375 0.34375 C 8.539062 0.34375 5.4375 -0.285156 4.125 -1.546875 C 2.769531 -2.890625 2.09375 -6.035156 2.09375 -10.984375 Z M 2.09375 -45.84375 "/></g></g></g><g fill="#000000" fill-opacity="1"><g transform="translate(274.577976, 135.749999)"><g><path d="M 11.125 -56.84375 L 16.453125 -28.484375 L 16.875 -28.484375 L 16.734375 -56.84375 L 25.125 -56.84375 L 25.125 0 L 16.515625 0 L 11.125 -29.125 L 10.703125 -29.125 L 10.921875 0 L 2.453125 0 L 2.453125 -56.84375 Z M 11.125 -56.84375 "/></g></g></g><g fill="#000000" fill-opacity="1"><g transform="translate(302.22649, 135.749999)"><g><path d="M 11.125 -56.84375 L 16.453125 -28.484375 L 16.875 -28.484375 L 16.734375 -56.84375 L 25.125 -56.84375 L 25.125 0 L 16.515625 0 L 11.125 -29.125 L 10.703125 -29.125 L 10.921875 0 L 2.453125 0 L 2.453125 -56.84375 Z M 11.125 -56.84375 "/></g></g></g><g fill="#000000" fill-opacity="1"><g transform="translate(329.874973, 135.749999)"><g><path d="M 17.984375 -56.84375 L 17.984375 -49.421875 L 12.1875 -49.421875 L 12.1875 -34.9375 L 17.984375 -34.9375 L 17.984375 -27.4375 L 12.1875 -27.4375 L 12.1875 -7.484375 L 17.984375 -7.484375 L 17.984375 0 L 2.453125 0 L 2.453125 -56.84375 Z M 17.984375 -56.84375 "/></g></g></g><g fill="#000000" fill-opacity="1"><g transform="translate(350.033858, 135.749999)"><g><path d="M 24.5625 -37.453125 L 14.84375 -37.453125 L 14.84375 -47.1875 C 14.84375 -48.8125 14.304688 -49.625 13.234375 -49.625 C 12.253906 -49.625 11.765625 -48.8125 11.765625 -47.1875 L 11.765625 -9.59375 C 11.765625 -8 12.300781 -7.203125 13.375 -7.203125 C 13.925781 -7.203125 14.304688 -7.378906 14.515625 -7.734375 C 14.734375 -8.085938 14.84375 -8.707031 14.84375 -9.59375 L 14.84375 -24.078125 L 24.5625 -24.078125 L 24.5625 -10.984375 C 24.5625 -6.035156 23.890625 -2.890625 22.546875 -1.546875 C 21.191406 -0.285156 18.15625 0.34375 13.4375 0.34375 C 8.539062 0.34375 5.4375 -0.285156 4.125 -1.546875 C 2.769531 -2.890625 2.09375 -6.035156 2.09375 -10.984375 L 2.09375 -45.84375 C 2.09375 -50.882812 2.75 -54.035156 4.0625 -55.296875 C 5.363281 -56.554688 8.441406 -57.1875 13.296875 -57.1875 C 18.203125 -57.1875 21.304688 -56.535156 22.609375 -55.234375 C 23.910156 -53.921875 24.5625 -50.789062 24.5625 -45.84375 Z M 24.5625 -37.453125 "/></g></g></g><g fill="#000000" fill-opacity="1"><g transform="translate(376.352442, 135.749999)"><g><path d="M 19.8125 -56.84375 L 19.8125 -49.28125 L 15.046875 -49.28125 L 15.046875 0 L 5.3125 0 L 5.3125 -49.28125 L 0.5625 -49.28125 L 0.5625 -56.84375 Z M 19.8125 -56.84375 "/></g></g></g></svg>