<svg xmlns="http://www.w3.org/2000/svg" xmlns:xlink="http://www.w3.org/1999/xlink" width="576" zoomAndPan="magnify" viewBox="0 0 432 215.999996" height="288" preserveAspectRatio="xMidYMid meet" version="1.0"><defs><g/></defs><g fill="#000000" fill-opacity="1"><g transform="translate(15.800128, 126.002923)"><g><path d="M 26.25 -13.09375 L 26.25 -20.453125 L 9.65625 -20.453125 L 9.65625 -25.703125 L 26.25 -25.703125 L 26.25 -33.34375 L 1.296875 -33.34375 L 1.296875 0 L 9.65625 0 L 9.65625 -13.09375 Z M 26.25 -13.09375 "/></g></g></g><g fill="#000000" fill-opacity="1"><g transform="translate(43.345849, 126.002923)"><g><path d="M 26.34375 0 L 26.34375 -33.34375 L 1.296875 -33.34375 L 1.296875 0 Z M 18 -7.59375 L 9.65625 -7.59375 L 9.65625 -25.703125 L 18 -25.703125 Z M 18 -7.59375 "/></g></g></g><g fill="#000000" fill-opacity="1"><g transform="translate(70.991572, 126.002923)"><g><path d="M 26.34375 0 L 26.34375 -33.34375 L 18 -33.34375 L 18 -7.59375 L 9.65625 -7.59375 L 9.65625 -33.34375 L 1.296875 -33.34375 L 1.296875 0 Z M 26.34375 0 "/></g></g></g><g fill="#000000" fill-opacity="1"><g transform="translate(98.637288, 126.002923)"><g><path d="M 25.796875 0 L 25.796875 -33.34375 L 0.75 -33.34375 L 0.75 -25.703125 L 2.40625 -25.703125 L 2.40625 0 L 9.09375 0 L 9.09375 -25.703125 L 17.453125 -25.703125 L 17.453125 0 Z M 25.796875 0 "/></g></g></g><g fill="#000000" fill-opacity="1"><g transform="translate(125.733102, 126.002923)"><g><path d="M 25.84375 0 L 25.84375 -33.34375 L 0.796875 -33.34375 L 0.796875 -25.703125 L 2.453125 -25.703125 L 2.453125 -7.59375 L 0.796875 -7.59375 L 0.796875 0 Z M 17.5 -7.59375 L 9.15625 -7.59375 L 9.15625 -25.703125 L 17.5 -25.703125 Z M 17.5 -7.59375 "/></g></g></g><g fill="#000000" fill-opacity="1"><g transform="translate(152.878895, 126.002923)"><g><path d="M 26.25 0 L 26.25 -7.59375 L 9.65625 -7.59375 L 9.65625 -13.09375 L 26.25 -13.09375 L 26.25 -20.453125 L 9.65625 -20.453125 L 9.65625 -25.703125 L 26.25 -25.703125 L 26.25 -33.34375 L 1.296875 -33.34375 L 1.296875 0 Z M 26.25 0 "/></g></g></g><g fill="#000000" fill-opacity="1"><g transform="translate(180.424637, 126.002923)"><g><path d="M 26.34375 0 L 21.453125 -9.296875 L 26.34375 -9.296875 L 26.34375 -33.34375 L 1.296875 -33.34375 L 1.296875 0 L 9.65625 0 L 9.65625 -9.296875 L 13.25 -9.296875 L 18 0 Z M 18 -16.90625 L 9.65625 -16.90625 L 9.65625 -25.703125 L 18 -25.703125 Z M 18 -16.90625 "/></g></g></g><g fill="#000000" fill-opacity="1"><g transform="translate(208.070352, 126.002923)"><g/></g></g><g fill="#000000" fill-opacity="1"><g transform="translate(225.567647, 126.002923)"><g><path d="M 26.34375 0 L 26.34375 -7.59375 L 9.65625 -7.59375 L 9.65625 -25.703125 L 26.34375 -25.703125 L 26.34375 -33.34375 L 1.296875 -33.34375 L 1.296875 0 Z M 26.34375 0 "/></g></g></g><g fill="#000000" fill-opacity="1"><g transform="translate(252.913407, 126.002923)"><g><path d="M 26.34375 0 L 26.34375 -33.34375 L 1.296875 -33.34375 L 1.296875 0 Z M 18 -7.59375 L 9.65625 -7.59375 L 9.65625 -25.703125 L 18 -25.703125 Z M 18 -7.59375 "/></g></g></g><g fill="#000000" fill-opacity="1"><g transform="translate(280.559137, 126.002923)"><g><path d="M 25.796875 0 L 25.796875 -33.34375 L 0.75 -33.34375 L 0.75 -25.703125 L 2.40625 -25.703125 L 2.40625 0 L 9.09375 0 L 9.09375 -25.703125 L 17.453125 -25.703125 L 17.453125 0 Z M 25.796875 0 "/></g></g></g><g fill="#000000" fill-opacity="1"><g transform="translate(307.654936, 126.002923)"><g><path d="M 25.796875 0 L 25.796875 -33.34375 L 0.75 -33.34375 L 0.75 -25.703125 L 2.40625 -25.703125 L 2.40625 0 L 9.09375 0 L 9.09375 -25.703125 L 17.453125 -25.703125 L 17.453125 0 Z M 25.796875 0 "/></g></g></g><g fill="#000000" fill-opacity="1"><g transform="translate(334.750735, 126.002923)"><g><path d="M 26.25 0 L 26.25 -7.59375 L 9.65625 -7.59375 L 9.65625 -13.09375 L 26.25 -13.09375 L 26.25 -20.453125 L 9.65625 -20.453125 L 9.65625 -25.703125 L 26.25 -25.703125 L 26.25 -33.34375 L 1.296875 -33.34375 L 1.296875 0 Z M 26.25 0 "/></g></g></g><g fill="#000000" fill-opacity="1"><g transform="translate(362.296505, 126.002923)"><g><path d="M 26.34375 0 L 26.34375 -7.59375 L 9.65625 -7.59375 L 9.65625 -25.703125 L 26.34375 -25.703125 L 26.34375 -33.34375 L 1.296875 -33.34375 L 1.296875 0 Z M 26.34375 0 "/></g></g></g><g fill="#000000" fill-opacity="1"><g transform="translate(389.642296, 126.002923)"><g><path d="M 25.796875 -25.703125 L 25.796875 -33.34375 L 0.75 -33.34375 L 0.75 -25.703125 L 9.15625 -25.703125 L 9.15625 0 L 17.5 0 L 17.5 -25.703125 Z M 25.796875 -25.703125 "/></g></g></g></svg>