<svg xmlns="http://www.w3.org/2000/svg" xmlns:xlink="http://www.w3.org/1999/xlink" width="576" zoomAndPan="magnify" viewBox="0 0 432 215.999996" height="288" preserveAspectRatio="xMidYMid meet" version="1.0"><defs><g/></defs><g fill="#545454" fill-opacity="1"><g transform="translate(0.0000044, 156.74999)"><g><path d="M 5.421875 -13.484375 L 5.421875 -23.578125 L 13.328125 -29.15625 L 21.390625 -34.71875 C 24.410156 -28.175781 28.414062 -23.242188 33.40625 -19.921875 C 38.382812 -16.597656 43.65625 -14.9375 49.21875 -14.9375 C 55.375 -14.9375 60.015625 -16.304688 63.140625 -19.046875 C 66.160156 -21.773438 67.671875 -25.484375 67.671875 -30.171875 C 67.671875 -38.578125 59.421875 -44.191406 42.921875 -47.015625 C 17.921875 -51.316406 5.421875 -62.304688 5.421875 -79.984375 C 5.421875 -84.671875 6.300781 -88.96875 8.0625 -92.875 C 9.71875 -96.675781 12.109375 -99.945312 15.234375 -102.6875 C 18.359375 -105.414062 22.117188 -107.5625 26.515625 -109.125 C 30.804688 -110.59375 35.640625 -111.328125 41.015625 -111.328125 C 46.097656 -111.328125 51.222656 -110.59375 56.390625 -109.125 C 61.472656 -107.5625 66.359375 -105.269531 71.046875 -102.25 L 82.90625 -102.25 L 82.90625 -92.140625 L 76.171875 -85.984375 L 69.578125 -79.984375 C 65.179688 -84.867188 60.492188 -88.53125 55.515625 -90.96875 C 50.535156 -93.40625 45.703125 -94.625 41.015625 -94.625 C 36.128906 -94.625 32.222656 -93.453125 29.296875 -91.109375 C 26.265625 -88.765625 24.75 -85.691406 24.75 -81.890625 C 24.75 -73.972656 32.515625 -68.695312 48.046875 -66.0625 C 73.628906 -61.664062 86.421875 -49.898438 86.421875 -30.765625 C 86.421875 -21.097656 83.296875 -13.332031 77.046875 -7.46875 C 70.796875 -1.507812 61.519531 1.46875 49.21875 1.46875 C 41.695312 1.46875 34.710938 0.195312 28.265625 -2.34375 C 21.828125 -4.78125 16.410156 -8.492188 12.015625 -13.484375 Z M 5.421875 -13.484375 "/></g></g><g transform="translate(91.552733, 156.74999)"><g><path d="M 77.9375 -61.078125 C 85.0625 -59.128906 90.675781 -55.765625 94.78125 -50.984375 C 98.875 -46.191406 100.921875 -40.332031 100.921875 -33.40625 C 100.921875 -27.34375 100.191406 -22.210938 98.734375 -18.015625 C 97.265625 -13.816406 94.921875 -10.398438 91.703125 -7.765625 C 88.472656 -5.023438 84.320312 -3.070312 79.25 -1.90625 C 74.070312 -0.632812 67.867188 0 60.640625 0 L 7.625 0 L 7.625 -14.65625 L 17.875 -14.65625 L 17.875 -95.21875 L 7.625 -95.21875 L 7.625 -109.859375 L 55.671875 -109.859375 C 62.890625 -109.859375 69.085938 -109.320312 74.265625 -108.25 C 79.347656 -107.175781 83.5 -105.515625 86.71875 -103.265625 C 89.9375 -100.921875 92.28125 -97.945312 93.75 -94.34375 C 95.21875 -90.625 95.953125 -86.128906 95.953125 -80.859375 C 95.953125 -76.265625 94.390625 -72.257812 91.265625 -68.84375 C 88.035156 -65.425781 83.59375 -62.835938 77.9375 -61.078125 Z M 52.296875 -66.359375 C 59.617188 -66.359375 65.476562 -67.578125 69.875 -70.015625 C 74.269531 -72.359375 76.46875 -75.535156 76.46875 -79.546875 C 76.46875 -85.203125 74.953125 -89.253906 71.921875 -91.703125 C 68.898438 -94.046875 63.722656 -95.21875 56.390625 -95.21875 L 36.625 -95.21875 L 36.625 -66.359375 Z M 55.375 -14.65625 C 64.457031 -14.65625 70.953125 -16.265625 74.859375 -19.484375 C 78.765625 -22.703125 80.71875 -28.070312 80.71875 -35.59375 C 80.71875 -38.039062 80.03125 -40.285156 78.65625 -42.328125 C 77.289062 -44.378906 75.390625 -46.140625 72.953125 -47.609375 C 70.503906 -49.078125 67.570312 -50.203125 64.15625 -50.984375 C 60.644531 -51.765625 56.789062 -52.15625 52.59375 -52.15625 L 36.625 -52.15625 L 36.625 -14.65625 Z M 55.375 -14.65625 "/></g></g><g transform="translate(197.607414, 156.74999)"><g><path d="M 7.328125 19.78125 L 7.328125 9.515625 L 92.28125 9.515625 L 92.28125 19.78125 Z M 7.328125 19.78125 "/></g></g></g></svg>